<?xml version="1.0" encoding="UTF-8" standalone="no"?>
<!-- Created with Inkscape (http://www.inkscape.org/) -->

<svg
   xmlns:dc="http://purl.org/dc/elements/1.1/"
   xmlns:cc="http://creativecommons.org/ns#"
   xmlns:rdf="http://www.w3.org/1999/02/22-rdf-syntax-ns#"
   xmlns:svg="http://www.w3.org/2000/svg"
   xmlns="http://www.w3.org/2000/svg"
   xmlns:sodipodi="http://sodipodi.sourceforge.net/DTD/sodipodi-0.dtd"
   xmlns:inkscape="http://www.inkscape.org/namespaces/inkscape"
   width="181.44066mm"
   height="72.771004mm"
   viewBox="0 0 181.44066 72.771004"
   version="1.1"
   id="svg8"
   inkscape:version="0.92.1 r15371"
   sodipodi:docname="angular-configuration-management.svg">
  <defs
     id="defs2">
    <clipPath
       id="clipPath26"
       clipPathUnits="userSpaceOnUse">
      <path
         style="clip-rule:evenodd"
         inkscape:connector-curvature="0"
         id="path24"
         d="M 0,1.2207e-4 H 960 V 540.00012 H 0 Z" />
    </clipPath>
    <clipPath
       id="clipPath38"
       clipPathUnits="userSpaceOnUse">
      <path
         style="clip-rule:evenodd"
         inkscape:connector-curvature="0"
         id="path36"
         d="M 1.4305e-5,0 H 960.00001 V 540 H 1.4305e-5 Z" />
    </clipPath>
    <clipPath
       id="clipPath50"
       clipPathUnits="userSpaceOnUse">
      <path
         style="clip-rule:evenodd"
         inkscape:connector-curvature="0"
         id="path48"
         d="M 1.4305e-5,0 H 960.00001 V 540 H 1.4305e-5 Z" />
    </clipPath>
    <clipPath
       id="clipPath62"
       clipPathUnits="userSpaceOnUse">
      <path
         style="clip-rule:evenodd"
         inkscape:connector-curvature="0"
         id="path60"
         d="M 1.4305e-5,0 H 960.00001 V 540 H 1.4305e-5 Z" />
    </clipPath>
    <clipPath
       id="clipPath74"
       clipPathUnits="userSpaceOnUse">
      <path
         style="clip-rule:evenodd"
         inkscape:connector-curvature="0"
         id="path72"
         d="M 1.4305e-5,0 H 960.00001 V 540 H 1.4305e-5 Z" />
    </clipPath>
    <clipPath
       id="clipPath88"
       clipPathUnits="userSpaceOnUse">
      <path
         style="clip-rule:evenodd"
         inkscape:connector-curvature="0"
         id="path86"
         d="M 1.4305e-5,0 H 960.00001 V 540 H 1.4305e-5 Z" />
    </clipPath>
    <clipPath
       id="clipPath100"
       clipPathUnits="userSpaceOnUse">
      <path
         style="clip-rule:evenodd"
         inkscape:connector-curvature="0"
         id="path98"
         d="M 1.4305e-5,0 H 960.00001 V 540 H 1.4305e-5 Z" />
    </clipPath>
    <clipPath
       id="clipPath114"
       clipPathUnits="userSpaceOnUse">
      <path
         style="clip-rule:evenodd"
         inkscape:connector-curvature="0"
         id="path112"
         d="M 1.4305e-5,0 H 960.00001 V 540 H 1.4305e-5 Z" />
    </clipPath>
    <clipPath
       id="clipPath128"
       clipPathUnits="userSpaceOnUse">
      <path
         style="clip-rule:evenodd"
         inkscape:connector-curvature="0"
         id="path126"
         d="M 1.4305e-5,0 H 960.00001 V 540 H 1.4305e-5 Z" />
    </clipPath>
    <clipPath
       id="clipPath144"
       clipPathUnits="userSpaceOnUse">
      <path
         style="clip-rule:evenodd"
         inkscape:connector-curvature="0"
         id="path142"
         d="M 1.4305e-5,0 H 960.00001 V 540 H 1.4305e-5 Z" />
    </clipPath>
    <clipPath
       id="clipPath156"
       clipPathUnits="userSpaceOnUse">
      <path
         style="clip-rule:evenodd"
         inkscape:connector-curvature="0"
         id="path154"
         d="M 1.4305e-5,0 H 960.00001 V 540 H 1.4305e-5 Z" />
    </clipPath>
    <clipPath
       id="clipPath168"
       clipPathUnits="userSpaceOnUse">
      <path
         style="clip-rule:evenodd"
         inkscape:connector-curvature="0"
         id="path166"
         d="M 1.4305e-5,0 H 960.00001 V 540 H 1.4305e-5 Z" />
    </clipPath>
  </defs>
  <sodipodi:namedview
     id="base"
     pagecolor="#ffffff"
     bordercolor="#666666"
     borderopacity="1.0"
     inkscape:pageopacity="0.0"
     inkscape:pageshadow="2"
     inkscape:zoom="0.35"
     inkscape:cx="307.22286"
     inkscape:cy="-206.78843"
     inkscape:document-units="mm"
     inkscape:current-layer="layer1"
     showgrid="false"
     fit-margin-top="0"
     fit-margin-left="0"
     fit-margin-right="0"
     fit-margin-bottom="0"
     inkscape:window-width="1920"
     inkscape:window-height="1135"
     inkscape:window-x="1911"
     inkscape:window-y="-9"
     inkscape:window-maximized="1" />
  <metadata
     id="metadata5">
    <rdf:RDF>
      <cc:Work
         rdf:about="">
        <dc:format>image/svg+xml</dc:format>
        <dc:type
           rdf:resource="http://purl.org/dc/dcmitype/StillImage" />
        <dc:title></dc:title>
      </cc:Work>
    </rdf:RDF>
  </metadata>
  <g
     inkscape:label="Ebene 1"
     inkscape:groupmode="layer"
     id="layer1"
     transform="translate(-24.547285,-21.349559)">
    <path
       d="m 108.66362,81.505222 h 97.32432 V 63.047891 h -97.32432 z"
       style="fill:#70ad47;fill-opacity:1;fill-rule:evenodd;stroke:none;stroke-width:0.35277778"
       id="path30"
       inkscape:connector-curvature="0" />
    <g
       id="g32"
       transform="matrix(0.35277777,0,0,-0.35277777,-46.869047,182.85122)">
      <g
         id="g34"
         clip-path="url(#clipPath38)">
        <text
           transform="matrix(1,0,0,-1,454.82,308.59)"
           style="font-variant:normal;font-weight:normal;font-size:14.03999996px;font-family:Consolas;-inkscape-font-specification:Consolas;writing-mode:lr-tb;fill:#ffffff;fill-opacity:1;fill-rule:nonzero;stroke:none"
           id="text42">
          <tspan
             x="0"
             y="0"
             id="tspan40">/</tspan>
        </text>
      </g>
    </g>
    <g
       id="g44"
       transform="matrix(0.35277777,0,0,-0.35277777,-46.869047,182.85122)">
      <g
         id="g46"
         clip-path="url(#clipPath50)">
        <text
           transform="matrix(1,0,0,-1,462.5,308.59)"
           style="font-variant:normal;font-weight:normal;font-size:14.03999996px;font-family:Consolas;-inkscape-font-specification:Consolas;writing-mode:lr-tb;fill:#ffffff;fill-opacity:1;fill-rule:nonzero;stroke:none"
           id="text54">
          <tspan
             x="0 7.7922001 15.5142"
             y="0"
             sodipodi:role="line"
             id="tspan52">src</tspan>
        </text>
      </g>
    </g>
    <g
       id="g56"
       transform="matrix(0.35277777,0,0,-0.35277777,-46.869047,182.85122)">
      <g
         id="g58"
         clip-path="url(#clipPath62)">
        <text
           transform="matrix(1,0,0,-1,485.78,308.59)"
           style="font-variant:normal;font-weight:normal;font-size:14.03999996px;font-family:Consolas;-inkscape-font-specification:Consolas;writing-mode:lr-tb;fill:#ffffff;fill-opacity:1;fill-rule:nonzero;stroke:none"
           id="text66">
          <tspan
             x="0 7.7220001 15.444 23.26428 30.98628 38.708279 46.430279 54.208439 62.000641 69.722641 77.444641 85.264923 92.986923 100.70892"
             y="0"
             sodipodi:role="line"
             id="tspan64">/environments/</tspan>
        </text>
      </g>
    </g>
    <g
       id="g68"
       transform="matrix(0.35277777,0,0,-0.35277777,-46.869047,182.85122)">
      <g
         id="g70"
         clip-path="url(#clipPath74)">
        <text
           transform="matrix(1,0,0,-1,594.29,308.59)"
           style="font-variant:normal;font-weight:normal;font-size:14.03999996px;font-family:Consolas;-inkscape-font-specification:Consolas;writing-mode:lr-tb;fill:#ffffff;fill-opacity:1;fill-rule:nonzero;stroke:none"
           id="text78">
          <tspan
             x="0 7.7922001 15.5142 23.2362 31.05648 38.778481 46.500481 54.222481 62.000641 69.792839 77.514839 85.236839 93.057121 100.77912"
             y="0"
             sodipodi:role="line"
             id="tspan76">environment.ts</tspan>
        </text>
      </g>
    </g>
    <path
       d="M 24.547285,77.822222 H 91.349283 V 66.688558 H 24.547285 Z"
       style="fill:#a5a5a5;fill-opacity:1;fill-rule:evenodd;stroke:none;stroke-width:0.35277778"
       id="path80"
       inkscape:connector-curvature="0" />
    <g
       id="g82"
       transform="matrix(0.35277777,0,0,-0.35277777,-46.869047,182.85122)">
      <g
         id="g84"
         clip-path="url(#clipPath88)">
        <text
           transform="matrix(1,0,0,-1,209.74,308.59)"
           style="font-variant:normal;font-weight:normal;font-size:14.03999996px;font-family:Consolas;-inkscape-font-specification:Consolas;writing-mode:lr-tb;fill:#ffffff;fill-opacity:1;fill-rule:nonzero;stroke:none"
           id="text92">
          <tspan
             x="0"
             y="0"
             id="tspan90">e</tspan>
        </text>
      </g>
    </g>
    <g
       id="g94"
       transform="matrix(0.35277777,0,0,-0.35277777,-46.869047,182.85122)">
      <g
         id="g96"
         clip-path="url(#clipPath100)">
        <text
           transform="matrix(1,0,0,-1,217.42,308.59)"
           style="font-variant:normal;font-weight:normal;font-size:14.03999996px;font-family:Consolas;-inkscape-font-specification:Consolas;writing-mode:lr-tb;fill:#ffffff;fill-opacity:1;fill-rule:nonzero;stroke:none"
           id="text104">
          <tspan
             x="0 7.7922001 15.5142 23.2362 30.9582 38.736359 46.528561 54.250561 61.972561 69.694557 77.472717 85.264923 92.986923 100.70892 108.5292 116.2512 123.9732 131.69521"
             y="0"
             sodipodi:role="line"
             id="tspan102">nvironment.prod.ts</tspan>
        </text>
      </g>
    </g>
    <path
       d="M 24.547285,61.566225 H 91.349283 V 50.432558 H 24.547285 Z"
       style="fill:#70ad47;fill-opacity:1;fill-rule:evenodd;stroke:none;stroke-width:0.35277778"
       id="path106"
       inkscape:connector-curvature="0" />
    <g
       id="g108"
       transform="matrix(0.35277777,0,0,-0.35277777,-46.869047,182.85122)">
      <g
         id="g110"
         clip-path="url(#clipPath114)">
        <text
           transform="matrix(1,0,0,-1,209.74,354.72)"
           style="font-variant:normal;font-weight:normal;font-size:14.03999996px;font-family:Consolas;-inkscape-font-specification:Consolas;writing-mode:lr-tb;fill:#ffffff;fill-opacity:1;fill-rule:nonzero;stroke:none"
           id="text118">
          <tspan
             x="0 7.7220001 15.444 23.166 30.94416 38.666161 46.388161 54.208439 61.930439 69.652443 77.374443 85.152603 92.944801 100.6668 108.3888 116.20908 123.93108"
             y="0"
             sodipodi:role="line"
             id="tspan116">environment.ci.ts</tspan>
        </text>
      </g>
    </g>
    <path
       d="M 24.547285,94.120562 H 91.349283 V 82.986892 H 24.547285 Z"
       style="fill:#a5a5a5;fill-opacity:1;fill-rule:evenodd;stroke:none;stroke-width:0.35277778"
       id="path120"
       inkscape:connector-curvature="0" />
    <g
       id="g122"
       transform="matrix(0.35277777,0,0,-0.35277777,-46.869047,182.85122)">
      <g
         id="g124"
         clip-path="url(#clipPath128)">
        <text
           transform="matrix(1,0,0,-1,209.74,262.49)"
           style="font-variant:normal;font-weight:normal;font-size:14.06400013px;font-family:Consolas;-inkscape-font-specification:Consolas;writing-mode:lr-tb;fill:#ffffff;fill-opacity:1;fill-rule:nonzero;stroke:none"
           id="text132">
          <tspan
             x="0 7.6789441 15.4704 23.149343 30.9408 38.619743 46.411201 54.202656 61.881599 69.673058 77.351997 85.143456 92.934914 100.61385 108.40531 116.19677 123.87571 131.66718 139.34612 147.13757 154.81651 162.60797"
             y="0"
             sodipodi:role="line"
             id="tspan130">environment.staging.ts</tspan>
        </text>
      </g>
    </g>
    <path
       d="M 106.91384,72.498812 H 99.801839 V 56.020558 l 0.211671,0.211667 h -8.664227 v -0.423334 h 8.875887 v 16.478251 l -0.21166,-0.21167 h 6.90033 z m -0.35278,-1.27 2.11667,1.05833 -2.11667,1.05833 z"
       style="fill:#70ad47;fill-opacity:1;fill-rule:nonzero;stroke:none;stroke-width:0.35277778"
       id="path134"
       inkscape:connector-curvature="0" />
    <path
       d="M 63.635062,21.349559 H 171.95195 v 15.310555 c 0,1.689806 -1.37231,3.062111 -3.06212,3.062111 H 60.572951 V 24.41167 c 0,-1.689806 1.372306,-3.062111 3.062111,-3.062111 z"
       style="fill:#70ad47;fill-opacity:1;fill-rule:evenodd;stroke:none;stroke-width:0.35277778"
       id="path136"
       inkscape:connector-curvature="0" />
    <g
       id="g138"
       transform="matrix(0.35277777,0,0,-0.35277777,-46.869047,182.85122)">
      <g
         id="g140"
         clip-path="url(#clipPath144)">
        <text
           transform="matrix(1,0,0,-1,339.17,425.62)"
           style="font-variant:normal;font-weight:normal;font-size:18.02400017px;font-family:Consolas;-inkscape-font-specification:Consolas;writing-mode:lr-tb;fill:#ffffff;fill-opacity:1;fill-rule:nonzero;stroke:none"
           id="text148">
          <tspan
             x="0 9.8411036 19.682207 29.523312 39.364414 49.277615 59.190815 68.995872 78.909073"
             y="0"
             sodipodi:role="line"
             id="tspan146">ng build</tspan>
        </text>
      </g>
    </g>
    <g
       id="g150"
       transform="matrix(0.35277777,0,0,-0.35277777,-46.869047,182.85122)">
      <g
         id="g152"
         clip-path="url(#clipPath156)">
        <text
           transform="matrix(1,0,0,-1,427.99,425.62)"
           style="font-variant:normal;font-weight:normal;font-size:18.02400017px;font-family:Consolas;-inkscape-font-specification:Consolas;writing-mode:lr-tb;fill:#ffffff;fill-opacity:1;fill-rule:nonzero;stroke:none"
           id="text160">
          <tspan
             x="0 9.8400002"
             y="0"
             sodipodi:role="line"
             id="tspan158">--</tspan>
        </text>
      </g>
    </g>
    <g
       id="g162"
       transform="matrix(0.35277777,0,0,-0.35277777,-46.869047,182.85122)">
      <g
         id="g164"
         clip-path="url(#clipPath168)">
        <text
           transform="matrix(1,0,0,-1,447.67,425.62)"
           style="font-variant:normal;font-weight:normal;font-size:18.02400017px;font-family:Consolas;-inkscape-font-specification:Consolas;writing-mode:lr-tb;fill:#ffffff;fill-opacity:1;fill-rule:nonzero;stroke:none"
           id="text172">
          <tspan
             x="0 9.9132004 19.826401 29.631456 39.472561 49.313663 59.226864 69.14006 78.945122 88.858322 98.771523 108.57658 118.41768 128.33089 138.24408"
             y="0"
             sodipodi:role="line"
             id="tspan170">configuration=ci</tspan>
        </text>
      </g>
    </g>
    <g
       id="g174"
       transform="matrix(0.35277777,0,0,-0.35277777,-46.869047,182.85122)">
      <path
         d="m 462.56,405.66 -46.1,-61.89"
         style="fill:none;stroke:#70ad47;stroke-width:1.55999994;stroke-linecap:butt;stroke-linejoin:miter;stroke-miterlimit:10;stroke-dasharray:6.24, 4.68;stroke-dashoffset:0;stroke-opacity:1"
         id="path176"
         inkscape:connector-curvature="0" />
    </g>
  </g>
</svg>
